<svg width="48" height="47" viewBox="0 0 48 47" fill="none" xmlns="http://www.w3.org/2000/svg">
<path d="M40.9402 15.3024H33.2006V7.55537C33.2006 6.65828 33.0232 5.77003 32.6785 4.94173C32.3339 4.11342 31.8288 3.36141 31.1924 2.72896C30.556 2.0965 29.8007 1.59607 28.9701 1.25647C28.1395 0.916863 27.2499 0.744781 26.3525 0.750121H21.3886C19.5822 0.750119 17.8496 1.46678 16.5713 2.74272C15.2931 4.01866 14.5736 5.74958 14.5709 7.55537V15.2923H6.8212C5.01571 15.2923 3.28418 16.0093 2.00751 17.2855C0.730837 18.5617 0.0136108 20.2927 0.0136108 22.0976L0.0136108 27.08C0.0136088 28.8858 0.730511 30.6178 2.00689 31.8956C3.28327 33.1734 5.01478 33.8927 6.8212 33.8954H14.5709C14.5709 38.26 14.0644 41.2373 12.403 44.1944C12.2793 44.4318 12.2259 44.6995 12.249 44.9661C12.2721 45.2328 12.3708 45.4874 12.5335 45.6999C12.6962 45.9125 12.9161 46.0744 13.1675 46.1664C13.4189 46.2585 13.6914 46.277 13.953 46.2198C19.3423 44.9741 29.6347 41.6323 33.2006 33.865H40.9503C42.7523 33.865 44.4808 33.1508 45.7568 31.8789C47.0329 30.6071 47.7525 28.8813 47.7579 27.08V22.1178C47.7579 20.312 47.041 18.58 45.7646 17.3022C44.4882 16.0243 42.7567 15.3051 40.9503 15.3024H40.9402ZM22.0572 30.4927C21.7486 30.4932 21.4428 30.4325 21.1577 30.3143C20.8726 30.1962 20.6137 30.0227 20.3958 29.8041L15.8676 25.2774C15.4446 24.8334 15.2119 24.2416 15.2194 23.6284C15.2269 23.0153 15.4739 22.4294 15.9076 21.9958C16.3414 21.5622 16.9275 21.3153 17.5408 21.3078C18.1542 21.3004 18.7462 21.5329 19.1903 21.9558L22.0572 24.8217L28.571 18.3101C29.0152 17.8872 29.6072 17.6547 30.2205 17.6622C30.8339 17.6696 31.42 17.9165 31.8538 18.3501C32.2875 18.7837 32.5345 19.3696 32.5419 19.9828C32.5494 20.5959 32.3168 21.1877 31.8938 21.6317L23.7186 29.8041C23.2737 30.2346 22.6763 30.4713 22.0572 30.4623V30.4927Z" fill="#15A9E3"/>
</svg>
