<svg width="141" height="29" viewBox="0 0 141 29" fill="none" xmlns="http://www.w3.org/2000/svg">
<path d="M8.95775 0.390734C9.96919 0.369207 10.9745 0.552838 11.913 0.930536C12.8515 1.30823 13.7036 1.87216 14.418 2.58826C15.1424 3.28091 15.7147 4.11672 16.0984 5.0425C16.4821 5.96829 16.6688 6.96378 16.6467 7.96563C16.6637 8.95836 16.4754 9.9439 16.0936 10.8605C15.7119 11.7771 15.1449 12.605 14.4281 13.2924C13.7138 14.0085 12.8616 14.5724 11.9231 14.9501C10.9846 15.3278 9.97933 15.5114 8.96788 15.4899H5.66539V22.4065H0.60022V0.390734H8.95775ZM8.95775 10.7505C9.32393 10.7659 9.689 10.7004 10.0269 10.5586C10.3649 10.4168 10.6674 10.2023 10.9129 9.93024C11.4113 9.37324 11.6868 8.65216 11.6868 7.90487C11.6868 7.15757 11.4113 6.43649 10.9129 5.87949C10.6591 5.62391 10.3529 5.42637 10.0153 5.3005C9.67781 5.17462 9.31699 5.1234 8.95775 5.15036H5.66539V10.8012L8.95775 10.7505ZM23.4036 9.4644C23.6775 8.49872 24.3171 7.67774 25.1865 7.17573C26.0731 6.64303 27.09 6.36613 28.1243 6.37571V11.7126C27.016 11.5148 25.8735 11.7195 24.9029 12.2898C24.3938 12.6048 23.984 13.057 23.7206 13.5944C23.4572 14.1319 23.3508 14.7327 23.4137 15.3279V22.4167H18.693V6.66939H23.4036V9.4644ZM43.33 20.4014C41.9652 21.7526 40.1741 22.5891 38.2617 22.7687C36.3493 22.9483 34.4338 22.4598 32.8411 21.3864C31.2484 20.313 30.0771 18.721 29.5265 16.8814C28.9759 15.0419 29.08 13.0684 29.8212 11.2969C30.5624 9.52546 31.8947 8.0655 33.5915 7.16556C35.2883 6.26562 37.2446 5.98131 39.1275 6.36104C41.0104 6.74076 42.7035 7.76105 43.9185 9.24823C45.1336 10.7354 45.7955 12.5976 45.7916 14.5177C45.8081 15.6149 45.5979 16.7037 45.1744 17.7161C44.7508 18.7284 44.1229 19.6426 43.33 20.4014ZM34.8509 17.1811C35.5431 17.8446 36.465 18.215 37.424 18.215C38.383 18.215 39.3049 17.8446 39.9971 17.1811C40.3381 16.8292 40.6038 16.4116 40.778 15.9537C40.9522 15.4958 41.0312 15.0072 41.0101 14.5177C41.0306 14.0283 40.9513 13.5399 40.7772 13.0821C40.603 12.6242 40.3376 12.2065 39.9971 11.8543C39.3049 11.1909 38.383 10.8204 37.424 10.8204C36.465 10.8204 35.5431 11.1909 34.8509 11.8543C34.5103 12.2065 34.245 12.6242 34.0708 13.0821C33.8967 13.5399 33.8174 14.0283 33.8379 14.5177C33.8154 15.0088 33.8937 15.4994 34.0679 15.9591C34.2422 16.4189 34.5086 16.8382 34.8509 17.1912V17.1811ZM57.8062 6.22381C58.8122 6.21531 59.808 6.42556 60.7245 6.83998C61.6411 7.2544 62.4566 7.86309 63.1145 8.62387C64.5803 10.2275 65.3681 12.3361 65.3128 14.5076C65.3681 16.6791 64.5803 18.7877 63.1145 20.3913C62.4566 21.1521 61.6411 21.7608 60.7245 22.1752C59.808 22.5896 58.8122 22.7999 57.8062 22.7914C56.9327 22.8415 56.059 22.6956 55.2492 22.3644C54.4394 22.0333 53.7139 21.5252 53.126 20.8774V28.6447H48.3951V6.66939H53.1058V8.18842C53.6877 7.53602 54.4081 7.02194 55.2144 6.68377C56.0206 6.3456 56.8924 6.19191 57.7657 6.23393L57.8062 6.22381ZM54.139 17.3026C54.8737 17.9701 55.8308 18.3399 56.8236 18.3399C57.8163 18.3399 58.7735 17.9701 59.5081 17.3026C59.8593 16.9308 60.1304 16.4909 60.3047 16.0101C60.4789 15.5294 60.5526 15.018 60.5212 14.5076C60.5526 13.9972 60.4789 13.4858 60.3047 13.005C60.1304 12.5243 59.8593 12.0844 59.5081 11.7126C58.7735 11.0451 57.8163 10.6752 56.8236 10.6752C55.8308 10.6752 54.8737 11.0451 54.139 11.7126C53.7884 12.0847 53.5176 12.5247 53.3434 13.0053C53.1692 13.486 53.0952 13.9973 53.126 14.5076C53.0952 15.0179 53.1692 15.5291 53.3434 16.0098C53.5176 16.4905 53.7884 16.9304 54.139 17.3026ZM77.145 6.22381C77.9269 6.20599 78.7039 6.35174 79.4261 6.65169C80.1484 6.95165 80.7999 7.3992 81.339 7.96563C81.9214 8.60964 82.37 9.36295 82.6587 10.1818C82.9474 11.0006 83.0704 11.8686 83.0206 12.7354V22.3762H78.31V13.424C78.3356 13.0371 78.2803 12.6492 78.1478 12.2848C78.0152 11.9204 77.8083 11.5876 77.5401 11.3075C77.2777 11.0605 76.9689 10.8679 76.6316 10.741C76.2942 10.6141 75.9351 10.5554 75.5748 10.5682C75.181 10.5483 74.7874 10.611 74.4193 10.7523C74.0511 10.8936 73.7167 11.1103 73.4373 11.3885C72.8704 12.0621 72.5903 12.9311 72.6573 13.8088V22.366H67.9467V0.390734H72.708V8.18842C73.2374 7.52136 73.9225 6.99435 74.7032 6.65359C75.4839 6.31283 76.3362 6.16873 77.1856 6.23393L77.145 6.22381ZM97.6488 6.65926H102.359V22.366H97.6488V20.8875C97.0609 21.5353 96.3355 22.0434 95.5257 22.3746C94.7158 22.7057 93.8422 22.8516 92.9686 22.8015C91.9627 22.81 90.9669 22.5997 90.0503 22.1853C89.1337 21.7709 88.3182 21.1622 87.6603 20.4014C86.1946 18.7978 85.4067 16.6892 85.462 14.5177C85.4067 12.3462 86.1946 10.2376 87.6603 8.634C88.3182 7.87322 89.1337 7.26453 90.0503 6.85011C90.9669 6.43568 91.9627 6.22544 92.9686 6.23393C93.8453 6.18883 94.721 6.34103 95.531 6.6793C96.341 7.01757 97.0648 7.53329 97.6488 8.18842V6.65926ZM91.2059 17.3026C91.9487 17.9659 92.9097 18.3326 93.9057 18.3326C94.9016 18.3326 95.8627 17.9659 96.6054 17.3026C96.9546 16.9294 97.2244 16.4893 97.3986 16.0089C97.5727 15.5285 97.6475 15.0177 97.6184 14.5076C97.6475 13.9974 97.5727 13.4867 97.3986 13.0063C97.2244 12.5258 96.9546 12.0857 96.6054 11.7126C95.8627 11.0492 94.9016 10.6826 93.9057 10.6826C92.9097 10.6826 91.9487 11.0492 91.2059 11.7126C90.8568 12.0857 90.5869 12.5258 90.4128 13.0063C90.2387 13.4867 90.1639 13.9974 90.1929 14.5076C90.1639 15.0177 90.2387 15.5285 90.4128 16.0089C90.5869 16.4893 90.8568 16.9294 91.2059 17.3026ZM110.514 9.45428C110.791 8.49236 111.43 7.67536 112.297 7.17573C113.184 6.64254 114.201 6.3656 115.235 6.37571V11.7126C114.127 11.5148 112.984 11.7195 112.014 12.2898C111.505 12.6048 111.095 13.057 110.831 13.5944C110.568 14.1319 110.462 14.7327 110.524 15.3279V22.4167H105.814V6.66939H110.524L110.514 9.45428ZM135.01 6.22381C135.815 6.18572 136.619 6.3216 137.367 6.62217C138.116 6.92274 138.79 7.38096 139.345 7.96563C140.479 9.27264 141.063 10.9671 140.976 12.6949V22.3356H136.266V13.1405C136.305 12.4638 136.1 11.7956 135.688 11.2569C135.481 11.0191 135.221 10.8331 134.929 10.7135C134.637 10.5939 134.321 10.5442 134.007 10.5682C133.665 10.5515 133.325 10.6141 133.012 10.7512C132.699 10.8883 132.422 11.096 132.203 11.3581C131.744 11.9838 131.518 12.7505 131.565 13.5253V22.366H126.855V13.1405C126.894 12.4638 126.689 11.7956 126.277 11.2569C126.07 11.0191 125.81 10.8331 125.518 10.7135C125.226 10.5939 124.91 10.5442 124.596 10.5682C124.254 10.5515 123.914 10.6141 123.601 10.7512C123.288 10.8883 123.011 11.096 122.792 11.3581C122.333 11.9838 122.107 12.7505 122.154 13.5253V22.366H117.444V6.66939H122.154V8.11753C122.639 7.4645 123.285 6.94791 124.029 6.61788C124.772 6.28785 125.589 6.15559 126.399 6.23393C127.201 6.18448 128.003 6.34531 128.724 6.70053C129.446 7.05576 130.062 7.59306 130.512 8.25931C131.033 7.57136 131.719 7.0254 132.507 6.67151C133.295 6.31763 134.159 6.16717 135.02 6.23393L135.01 6.22381Z" fill="#184363"/>
</svg>
